<?xml version="1.0" encoding="UTF-8" standalone="no"?>
<!-- Created with Inkscape (http://www.inkscape.org/) -->

<svg
   width="52mm"
   height="25mm"
   viewBox="0 0 52 25"
   version="1.1"
   id="svg1"
   xmlns="http://www.w3.org/2000/svg"
   xmlns:svg="http://www.w3.org/2000/svg">
  <defs
     id="defs1">
    <clipPath
       clipPathUnits="userSpaceOnUse"
       id="clipPath2">
      <path
         d="M 0,203.6 H 568.08 V 0 H 0 Z"
         transform="translate(-388.42771,-37.850998)"
         id="path2" />
    </clipPath>
    <clipPath
       clipPathUnits="userSpaceOnUse"
       id="clipPath4">
      <path
         d="M 0,203.6 H 568.08 V 0 H 0 Z"
         transform="translate(-395.01271,-41.805104)"
         id="path4" />
    </clipPath>
    <clipPath
       clipPathUnits="userSpaceOnUse"
       id="clipPath6">
      <path
         d="M 0,203.6 H 568.08 V 0 H 0 Z"
         transform="translate(-396.39061,-40.681101)"
         id="path6" />
    </clipPath>
    <clipPath
       clipPathUnits="userSpaceOnUse"
       id="clipPath8">
      <path
         d="M 0,203.6 H 568.08 V 0 H 0 Z"
         transform="translate(-274.2451,-20.302198)"
         id="path8" />
    </clipPath>
    <clipPath
       clipPathUnits="userSpaceOnUse"
       id="clipPath10">
      <path
         d="M 0,203.6 H 568.08 V 0 H 0 Z"
         transform="translate(-298.9531,-40.790399)"
         id="path10" />
    </clipPath>
    <clipPath
       clipPathUnits="userSpaceOnUse"
       id="clipPath12">
      <path
         d="M 0,203.6 H 568.08 V 0 H 0 Z"
         transform="translate(-304.71291,-30.143001)"
         id="path12" />
    </clipPath>
    <clipPath
       clipPathUnits="userSpaceOnUse"
       id="clipPath14">
      <path
         d="M 0,203.6 H 568.08 V 0 H 0 Z"
         transform="translate(-329.19241,-30.143001)"
         id="path14" />
    </clipPath>
    <clipPath
       clipPathUnits="userSpaceOnUse"
       id="clipPath16">
      <path
         d="M 0,203.6 H 568.08 V 0 H 0 Z"
         transform="translate(-335.90141,-25.081498)"
         id="path16" />
    </clipPath>
    <clipPath
       clipPathUnits="userSpaceOnUse"
       id="clipPath18">
      <path
         d="M 0,203.6 H 568.08 V 0 H 0 Z"
         transform="translate(-358.44531,-31.692801)"
         id="path18" />
    </clipPath>
    <clipPath
       clipPathUnits="userSpaceOnUse"
       id="clipPath20">
      <path
         d="M 0,203.6 H 568.08 V 0 H 0 Z"
         transform="translate(-374.05661,-30.143001)"
         id="path20" />
    </clipPath>
    <clipPath
       clipPathUnits="userSpaceOnUse"
       id="clipPath22">
      <path
         d="M 0,203.6 H 568.08 V 0 H 0 Z"
         transform="translate(-395.27931,-30.143001)"
         id="path22" />
    </clipPath>
    <clipPath
       clipPathUnits="userSpaceOnUse"
       id="clipPath24">
      <path
         d="M 0,203.6 H 568.08 V 0 H 0 Z"
         transform="translate(-376.29491,-33.687898)"
         id="path24" />
    </clipPath>
    <clipPath
       clipPathUnits="userSpaceOnUse"
       id="clipPath26">
      <path
         d="M 0,203.6 H 568.08 V 0 H 0 Z"
         transform="translate(-389.29491,-36.906598)"
         id="path26" />
    </clipPath>
    <clipPath
       clipPathUnits="userSpaceOnUse"
       id="clipPath28">
      <path
         d="M 0,203.6 H 568.08 V 0 H 0 Z"
         transform="translate(-389.29491,-36.906598)"
         id="path28" />
    </clipPath>
    <clipPath
       clipPathUnits="userSpaceOnUse"
       id="clipPath30">
      <path
         d="M 0,203.6 H 568.08 V 0 H 0 Z"
         transform="translate(-383.80181,-45.357801)"
         id="path30" />
    </clipPath>
    <clipPath
       clipPathUnits="userSpaceOnUse"
       id="clipPath32">
      <path
         d="M 0,203.6 H 568.08 V 0 H 0 Z"
         transform="translate(-378.52931,-43.155704)"
         id="path32" />
    </clipPath>
    <clipPath
       clipPathUnits="userSpaceOnUse"
       id="clipPath34">
      <path
         d="M 0,203.6 H 568.08 V 0 H 0 Z"
         transform="translate(-389.34771,-40.181099)"
         id="path34" />
    </clipPath>
    <clipPath
       clipPathUnits="userSpaceOnUse"
       id="clipPath36">
      <path
         d="M 0,203.6 H 568.08 V 0 H 0 Z"
         transform="translate(-376.53811,-32.175201)"
         id="path36" />
    </clipPath>
    <clipPath
       clipPathUnits="userSpaceOnUse"
       id="clipPath38">
      <path
         d="M 0,203.6 H 568.08 V 0 H 0 Z"
         transform="translate(-386.84471,-30.550198)"
         id="path38" />
    </clipPath>
  </defs>
  <g
     id="layer1">
    <g
       id="g1"
       transform="translate(-115.41379,-130.65903)">
      <path
         id="path1"
         d="m 0,0 c 0.18,-0.115 0.598,-0.295 1.037,-0.295 0.814,0 1.066,0.518 1.059,0.907 C 2.089,1.268 1.498,1.549 0.886,1.549 H 0.532 v 0.474 h 0.354 c 0.461,0 1.044,0.239 1.044,0.793 0,0.374 -0.238,0.705 -0.822,0.705 -0.374,0 -0.734,-0.165 -0.935,-0.309 L 0.007,3.673 c 0.245,0.181 0.721,0.36 1.224,0.36 0.922,0 1.34,-0.548 1.34,-1.116 0,-0.482 -0.288,-0.894 -0.864,-1.103 V 1.801 C 2.283,1.686 2.751,1.253 2.751,0.598 c 0,-0.749 -0.583,-1.405 -1.707,-1.405 -0.525,0 -0.986,0.166 -1.217,0.317 z"
         style="fill:#231f20;fill-opacity:1;fill-rule:nonzero;stroke:none"
         transform="matrix(0.35277776,0,0,-0.35277776,158.83453,142.87377)"
         clip-path="url(#clipPath2)" />
      <path
         id="path3"
         d="m 0,0 v -0.418 l -2.038,-4.264 h -0.655 l 2.031,4.142 v 0.014 H -2.953 V 0 Z"
         style="fill:#231f20;fill-opacity:1;fill-rule:nonzero;stroke:none"
         transform="matrix(0.35277776,0,0,-0.35277776,161.15757,141.47885)"
         clip-path="url(#clipPath4)" />
      <path
         id="path5"
         d="m 0,0 c 0,-0.468 0.354,-0.72 0.894,-0.864 0.403,0.136 0.712,0.425 0.712,0.85 0,0.374 -0.223,0.763 -0.792,0.763 C 0.288,0.749 0,0.403 0,0 m 1.743,-2.341 c 0,0.57 -0.396,0.843 -1.029,1.024 -0.548,-0.16 -0.843,-0.519 -0.843,-0.966 -0.022,-0.475 0.338,-0.893 0.936,-0.893 0.569,0 0.936,0.353 0.936,0.835 m -2.52,-0.028 c 0,0.591 0.352,1.008 0.928,1.253 l -0.006,0.021 c -0.519,0.245 -0.743,0.649 -0.743,1.052 0,0.742 0.627,1.246 1.449,1.246 0.907,0 1.361,-0.569 1.361,-1.152 0,-0.397 -0.195,-0.822 -0.772,-1.095 v -0.021 c 0.584,-0.231 0.944,-0.642 0.944,-1.21 0,-0.815 -0.698,-1.362 -1.591,-1.362 -0.98,0 -1.57,0.583 -1.57,1.268"
         style="fill:#231f20;fill-opacity:1;fill-rule:nonzero;stroke:none"
         transform="matrix(0.35277776,0,0,-0.35277776,161.64366,141.87537)"
         clip-path="url(#clipPath6)" />
      <path
         id="path7"
         d="m 0,0 c 0.403,0.906 1.737,1.485 1.737,1.485 0,0 0.956,0.605 0.452,-0.528 C 1.967,0.456 1.339,-0.424 0.725,-0.707 0.248,-0.926 -0.331,-0.745 0,0 m -5.587,2.441 c 0,0 -0.73,-0.049 -0.68,0.68 0.051,0.73 1.032,1.032 1.435,0.654 0.402,-0.377 0.251,-1.233 -0.755,-1.334 m -1.096,8.566 c 0.765,0.669 1.577,0.143 1.529,-0.239 -0.24,-1.914 -2.507,-0.617 -1.529,0.239 m 29.768,23.197 h 1.324 c 0.158,0.449 1.016,0.912 1.419,1.147 0.476,0.278 0.674,1.349 0.674,1.349 0,0 -0.079,2.143 1.508,2.183 1.587,0.039 1.627,-1.627 1.627,-1.627 l 0.153,-3.052 h 90.045 c 9.528,0 17.324,-7.796 17.324,-17.323 0,-9.528 -7.796,-17.323 -17.324,-17.323 H 24.841 c -0.245,-0.764 -1.819,-1.001 -2.687,-1.08 -0.953,-0.087 -0.711,-1.456 -0.711,-1.456 0,0 0.087,-1.766 -1.42,-1.732 -1.507,0.035 -1.784,2.373 -1.906,2.391 -0.121,0.017 -0.138,-1.247 -0.138,-1.247 0,0 0.017,-2.373 -0.745,-2.339 -0.762,0.034 -0.728,3.776 -0.537,4.642 0.15,0.683 0.096,1.645 0.066,2.023 -1.253,0.495 -2.435,1.133 -3.528,1.892 -0.388,-0.285 -1.103,-0.921 -1.873,-2.17 -1.151,-1.866 -0.871,-1.555 -1.12,-1.461 -0.249,0.092 0.591,2.738 -0.249,1.898 -0.84,-0.841 -1.711,-1.961 -3.36,-4.45 -1.65,-2.49 -4.326,-3.921 -5.695,-2.397 -1.369,1.526 0.094,3.548 0.498,3.89 0.405,0.343 6.441,5.352 6.441,5.352 0,0 1.836,1.338 0.903,1.432 0,0 -0.405,0 -0.623,-0.28 C 7.939,4.186 7.411,3.813 6.788,4.217 c -0.622,0.404 0,1.245 0.498,1.4 C 7.767,5.768 8.974,6.615 8.55,7.486 8.511,7.547 8.472,7.607 8.434,7.668 7.783,8.442 5.678,7.943 5.108,7.733 4.517,7.515 2.37,6.021 2.37,6.021 c 0,0 -0.841,-0.498 -1.525,-0.404 -0.685,0.093 -0.218,0.654 0,0.871 0.217,0.218 1.058,0.934 2.334,1.027 1.276,0.093 0.093,1.121 0.093,1.121 0,0 -0.436,0.684 -1.369,-0.125 C 0.969,7.702 0.378,7.391 -0.4,7.951 c -0.778,0.56 0.436,2.396 1.556,2.956 1.12,0.56 1.805,0.778 2.427,0.903 0.623,0.124 2.832,1.244 1.525,1.742 -1.307,0.498 -2.24,0.031 -2.645,-0.156 -0.404,-0.186 -2.272,-2.022 -3.859,-1.618 -1.586,0.405 -0.466,1.68 -0.155,1.836 0.311,0.156 2.302,0.187 2.832,0.405 0.529,0.217 1.182,0.591 1.804,0.591 0.587,0 2.781,-0.47 2.791,0.286 -0.003,0.039 -0.008,0.077 -0.012,0.115 -0.003,0.011 -0.006,0.022 -0.01,0.034 -0.279,0.965 -0.311,1.618 -1.213,1.992 -0.902,0.373 -2.271,0.467 -3.516,1.058 -1.245,0.592 -2.085,0.809 -2.832,0.84 -0.747,0.031 -5.85,-0.218 -5.85,1.929 0,2.148 2.428,2.334 4.077,1.525 1.649,-0.809 5.476,-1.649 7.156,-1.462 1.681,0.186 1.805,0.995 1.277,1.306 0,0 -0.779,0.561 -1.65,0.654 -0.871,0.093 -2.147,0.435 -1.711,1.525 0.435,1.089 3.267,0.342 3.267,0.342 0,0 1.805,-0.809 1.276,0.529 -0.529,1.338 -3.237,3.641 -4.792,4.263 -1.556,0.622 -5.415,2.801 -3.797,4.917 0,0 1.152,1.493 2.988,-0.312 1.836,-1.804 6.823,-5.862 6.823,-5.862 0,0 1.145,-0.945 2.083,-0.767 0.625,0.799 1.319,1.542 2.072,2.221 0.137,0.478 0.175,1.059 0.06,1.793 -0.345,2.212 -2.073,5.735 -2.764,6.841 -0.691,1.105 -2.626,4.423 -2.764,6.634 0,0 -0.138,0.552 -0.415,1.036 -0.276,0.484 -2.349,2.833 -0.414,4.423 0,0 0.622,0.69 2.073,0.137 1.451,-0.552 2.166,-1.712 2.248,-2.061 0.082,-0.349 -0.1,-2.671 0.243,-3.399 0.342,-0.727 0.578,-1.165 0.711,-1.697 0.134,-0.531 1.729,-4.121 2.305,-5.052 0.576,-0.93 1.817,-1.995 2.127,-3.236 0.29,-1.159 0.735,-1.932 1.371,-2.353 2.088,0.897 4.385,1.395 6.792,1.395 m -8.629,-51.519 c 0,0 -1.107,0.465 -0.175,1.63 0.932,1.165 0.99,2.564 0.99,2.564 0,0 -0.059,2.37 0.521,3.15 0.58,0.781 0.98,1.061 1.541,1.08 0,0 -0.201,-0.259 -0.381,-0.88 -0.18,-0.62 0.14,-3.38 -0.36,-4.06 -0.5,-0.681 -1.02,-1.54 -1.04,-2.44 -0.02,-0.901 -0.54,-1.161 -1.096,-1.044 M 5.685,-7.044 c 0,0 -0.824,-0.184 -0.55,0.61 0.275,0.794 2.107,3.329 3.176,3.083 0,0 0.335,-0.122 -0.092,-0.854 C 7.792,-4.937 6.723,-6.892 5.685,-7.044 M -2.773,45.62 c 0,0 -0.945,0.5 -0.612,1.556 0.334,1.055 1.112,0.834 1.445,0.555 0.334,-0.277 0.444,-0.388 0.944,-0.444 0.5,-0.056 0.778,-1.056 0.334,-1.389 -0.444,-0.334 -0.667,-0.889 -2.111,-0.278 m 28.878,-6.817 c 0,0 -0.119,2.619 0.437,3.69 0.555,1.071 0.992,0.437 0.992,-0.238 0,-0.674 -0.159,-3.968 -1.429,-3.452"
         style="fill:#cceef8;fill-opacity:1;fill-rule:evenodd;stroke:none"
         transform="matrix(0.35277776,0,0,-0.35277776,118.55344,149.06459)"
         clip-path="url(#clipPath8)" />
      <path
         id="path9"
         d="m 0,0 -2.482,-2.494 c -0.122,0.347 -0.292,0.66 -0.508,0.935 -0.216,0.276 -0.457,0.513 -0.728,0.704 -0.267,0.186 -0.559,0.334 -0.873,0.431 -0.313,0.102 -0.635,0.149 -0.97,0.149 -0.461,0 -0.897,-0.093 -1.309,-0.285 -0.406,-0.19 -0.762,-0.457 -1.067,-0.799 -0.301,-0.343 -0.538,-0.75 -0.711,-1.225 -0.174,-0.47 -0.263,-0.99 -0.263,-1.562 0,-0.462 0.089,-0.898 0.263,-1.301 0.173,-0.407 0.41,-0.762 0.711,-1.067 0.305,-0.309 0.661,-0.547 1.067,-0.72 0.412,-0.174 0.848,-0.263 1.309,-0.263 0.335,0 0.652,0.047 0.957,0.136 0.305,0.093 0.593,0.224 0.864,0.393 0.267,0.17 0.509,0.377 0.72,0.619 0.208,0.245 0.382,0.517 0.513,0.813 l 2.482,-2.494 c -0.313,-0.446 -0.678,-0.847 -1.084,-1.203 -0.412,-0.356 -0.852,-0.657 -1.33,-0.907 -0.475,-0.245 -0.975,-0.436 -1.5,-0.563 -0.525,-0.127 -1.067,-0.194 -1.622,-0.194 -0.932,0 -1.813,0.177 -2.634,0.529 -0.826,0.351 -1.542,0.834 -2.16,1.444 -0.615,0.614 -1.102,1.33 -1.458,2.148 -0.355,0.817 -0.533,1.694 -0.533,2.63 0,1.016 0.178,1.969 0.533,2.854 0.356,0.886 0.843,1.656 1.458,2.313 0.618,0.661 1.334,1.177 2.16,1.558 0.821,0.382 1.702,0.572 2.634,0.572 0.555,0 1.102,-0.072 1.635,-0.212 C -3.392,2.8 -2.884,2.592 -2.401,2.325 -1.918,2.059 -1.469,1.729 -1.063,1.338 -0.652,0.949 -0.296,0.504 0,0"
         style="fill:#232c5a;fill-opacity:1;fill-rule:nonzero;stroke:none"
         transform="matrix(0.35277776,0,0,-0.35277776,127.26987,141.83681)"
         clip-path="url(#clipPath10)" />
      <path
         id="path11"
         d="M 0,0 H -3.388 V 18.576 H 0 v -5.87 c 0.402,0.305 0.822,0.525 1.25,0.652 0.432,0.127 0.868,0.191 1.316,0.191 0.818,0 1.589,-0.153 2.309,-0.466 0.72,-0.31 1.347,-0.732 1.88,-1.275 C 7.289,11.266 7.708,10.631 8.022,9.906 8.331,9.182 8.483,8.411 8.483,7.594 V 0 H 5.074 V 7.594 H 5.1 C 5.1,7.941 5.032,8.271 4.9,8.58 4.765,8.89 4.587,9.161 4.354,9.394 4.121,9.622 3.854,9.805 3.545,9.94 3.24,10.071 2.914,10.14 2.566,10.14 2.211,10.14 1.876,10.071 1.563,9.94 1.245,9.805 0.974,9.622 0.741,9.394 0.513,9.161 0.33,8.89 0.195,8.58 0.063,8.271 0,7.941 0,7.594 Z"
         style="fill:#232c5a;fill-opacity:1;fill-rule:nonzero;stroke:none"
         transform="matrix(0.35277776,0,0,-0.35277776,129.30181,145.59298)"
         clip-path="url(#clipPath12)" />
      <path
         id="path13"
         d="M 0,0 H -0.821 L -2.134,1.825 C -2.456,1.533 -2.799,1.262 -3.159,1.012 -3.519,0.758 -3.896,0.537 -4.294,0.355 -4.692,0.169 -5.099,0.021 -5.514,-0.089 -5.933,-0.195 -6.357,-0.25 -6.789,-0.25 c -0.932,0 -1.813,0.161 -2.634,0.475 -0.826,0.312 -1.546,0.77 -2.16,1.367 -0.619,0.601 -1.102,1.334 -1.458,2.203 -0.355,0.872 -0.533,1.859 -0.533,2.969 0,1.033 0.178,1.982 0.533,2.845 0.356,0.865 0.839,1.606 1.458,2.229 0.614,0.618 1.334,1.1 2.16,1.444 0.821,0.343 1.702,0.517 2.634,0.517 0.432,0 0.856,-0.056 1.279,-0.161 0.424,-0.111 0.83,-0.259 1.228,-0.45 0.399,-0.19 0.776,-0.411 1.136,-0.668 0.36,-0.254 0.699,-0.535 1.012,-0.831 l 1.313,1.576 H 0 Z m -3.414,6.764 c 0,0.462 -0.088,0.91 -0.266,1.346 -0.178,0.432 -0.42,0.818 -0.724,1.153 -0.309,0.334 -0.665,0.605 -1.076,0.804 -0.407,0.204 -0.843,0.305 -1.309,0.305 -0.461,0 -0.898,-0.076 -1.309,-0.232 C -8.508,9.979 -8.864,9.749 -9.165,9.44 -9.466,9.136 -9.703,8.759 -9.876,8.306 -10.05,7.856 -10.139,7.34 -10.139,6.764 c 0,-0.58 0.089,-1.097 0.263,-1.546 0.173,-0.453 0.41,-0.83 0.711,-1.135 0.301,-0.306 0.657,-0.538 1.067,-0.695 0.411,-0.157 0.848,-0.238 1.309,-0.238 0.466,0 0.902,0.103 1.309,0.306 0.411,0.203 0.767,0.47 1.076,0.805 0.304,0.334 0.546,0.719 0.724,1.156 0.178,0.432 0.266,0.881 0.266,1.347"
         style="fill:#232c5a;fill-opacity:1;fill-rule:nonzero;stroke:none"
         transform="matrix(0.35277776,0,0,-0.35277776,137.93763,145.59298)"
         clip-path="url(#clipPath14)" />
      <path
         id="path15"
         d="m 0,0 h -3.41 v 18.352 h 0.817 l 1.352,-1.601 c 0.308,0.288 0.643,0.563 1.008,0.817 0.364,0.259 0.741,0.479 1.134,0.665 0.395,0.187 0.801,0.33 1.221,0.441 0.423,0.105 0.851,0.161 1.278,0.161 0.937,0 1.814,-0.17 2.639,-0.504 0.822,-0.335 1.542,-0.81 2.156,-1.419 0.618,-0.614 1.106,-1.351 1.461,-2.216 0.356,-0.863 0.534,-1.821 0.534,-2.871 C 10.19,10.732 10.012,9.75 9.656,8.877 9.301,8.005 8.813,7.264 8.195,6.653 7.581,6.048 6.861,5.582 6.039,5.26 5.214,4.938 4.337,4.777 3.4,4.777 3.104,4.777 2.808,4.807 2.516,4.875 2.219,4.942 1.931,5.031 1.647,5.142 1.359,5.252 1.08,5.379 0.8,5.519 0.524,5.663 0.258,5.807 0,5.955 Z m 6.789,11.825 c 0,0.564 -0.089,1.068 -0.267,1.512 -0.177,0.449 -0.419,0.826 -0.724,1.136 -0.31,0.308 -0.669,0.549 -1.08,0.715 -0.415,0.166 -0.856,0.246 -1.318,0.246 -0.461,0 -0.897,-0.08 -1.308,-0.246 C 1.682,15.022 1.325,14.781 1.021,14.473 0.711,14.163 0.47,13.786 0.292,13.337 0.114,12.893 0.025,12.389 0.025,11.825 0.025,11.287 0.114,10.796 0.292,10.347 0.47,9.902 0.711,9.521 1.021,9.208 1.325,8.89 1.682,8.648 2.092,8.475 2.503,8.301 2.939,8.212 3.4,8.212 c 0.462,0 0.903,0.089 1.318,0.263 0.411,0.173 0.77,0.415 1.08,0.733 0.305,0.313 0.547,0.694 0.724,1.139 0.178,0.449 0.267,0.94 0.267,1.478"
         style="fill:#316bbd;fill-opacity:1;fill-rule:nonzero;stroke:none"
         transform="matrix(0.35277776,0,0,-0.35277776,140.30441,147.37856)"
         clip-path="url(#clipPath16)" />
      <path
         id="path17"
         d="m 0,0 c -0.271,-0.246 -0.563,-0.482 -0.872,-0.699 -0.31,-0.22 -0.636,-0.41 -0.975,-0.572 -0.339,-0.161 -0.69,-0.288 -1.049,-0.385 -0.361,-0.093 -0.725,-0.144 -1.098,-0.144 -0.818,0 -1.588,0.149 -2.308,0.436 -0.72,0.288 -1.351,0.699 -1.893,1.233 -0.542,0.533 -0.966,1.186 -1.276,1.948 -0.312,0.767 -0.466,1.626 -0.466,2.576 v 7.347 h 3.376 V 4.393 c 0,-0.446 0.068,-0.844 0.204,-1.196 0.135,-0.35 0.322,-0.647 0.55,-0.888 0.234,-0.243 0.504,-0.42 0.814,-0.547 0.308,-0.122 0.643,-0.187 0.999,-0.187 0.348,0 0.678,0.081 0.987,0.242 0.309,0.165 0.58,0.377 0.814,0.64 0.228,0.267 0.41,0.567 0.546,0.901 0.13,0.335 0.199,0.678 0.199,1.035 V 11.74 H 1.936 V -1.55 H 1.118 Z"
         style="fill:#316bbd;fill-opacity:1;fill-rule:nonzero;stroke:none"
         transform="matrix(0.35277776,0,0,-0.35277776,148.2574,145.04624)"
         clip-path="url(#clipPath18)" />
      <path
         id="path19"
         d="m 0,0 h -11.08 l 5.595,9.89 h -5.595 v 3.375 H 0 L -5.595,3.375 H 0 Z"
         style="fill:#316bbd;fill-opacity:1;fill-rule:nonzero;stroke:none"
         transform="matrix(0.35277776,0,0,-0.35277776,153.76472,145.59298)"
         clip-path="url(#clipPath20)" />
      <path
         id="path21"
         d="m 0,0 h -3.389 v 13.29 h 0.818 l 1.118,-1.291 c 0.546,0.495 1.164,0.881 1.854,1.147 0.691,0.267 1.411,0.403 2.165,0.403 0.809,0 1.576,-0.153 2.295,-0.466 0.721,-0.31 1.348,-0.732 1.885,-1.275 C 7.284,11.266 7.708,10.631 8.021,9.906 8.33,9.182 8.483,8.411 8.483,7.594 V 0 H 5.099 v 7.594 c 0,0.347 -0.068,0.677 -0.2,0.986 C 4.765,8.89 4.587,9.161 4.354,9.394 4.12,9.622 3.854,9.805 3.545,9.94 3.239,10.071 2.913,10.14 2.566,10.14 2.21,10.14 1.876,10.071 1.562,9.94 1.245,9.805 0.974,9.622 0.74,9.394 0.512,9.161 0.33,8.89 0.194,8.58 0.062,8.271 0,7.941 0,7.594 Z"
         style="fill:#316bbd;fill-opacity:1;fill-rule:nonzero;stroke:none"
         transform="matrix(0.35277776,0,0,-0.35277776,161.25162,145.59298)"
         clip-path="url(#clipPath22)" />
      <path
         id="path23"
         d="m 0,0 c 0,0.002 -0.153,0.816 -0.884,2.228 -0.39,0.755 -0.629,1.503 -0.607,2.238 0.021,0.749 0.308,1.472 0.968,2.161 l 0.003,0.005 0.003,0.003 h 0.001 c 0.416,0.434 0.853,0.866 1.271,1.279 0.816,0.806 1.56,1.541 1.901,2.053 0.3,0.45 0.735,0.796 1.369,0.945 0.607,0.143 1.397,0.103 2.429,-0.204 1.209,-0.36 2.105,-0.455 2.607,-0.475 0.477,-0.019 0.56,0.013 1.043,-0.128 0.628,-0.182 1.644,-0.585 2.003,-1.346 V 8.758 L 12.108,8.755 12.109,8.754 C 12.349,8.248 12.534,7.672 12.724,7.082 12.92,6.471 13.121,5.844 13.39,5.279 L 13.391,5.277 13.392,5.274 C 13.458,5.135 13.537,4.98 13.615,4.827 V 4.826 c 0.51,-1.004 1.016,-2 0.422,-3.487 C 13.683,0.452 13.01,-0.215 12.336,-0.882 11.75,-1.461 11.164,-2.042 10.824,-2.745 10.001,-4.455 6.583,-4.06 6.574,-4.059 l -0.015,0.001 -0.006,10e-4 c -0.007,0.001 -2.41,0.484 -3.619,0.641 L 2.925,-3.414 H 2.924 C 2.734,-3.389 2.548,-3.345 2.368,-3.28 2.187,-3.216 2.01,-3.133 1.839,-3.03 0.981,-2.513 0.284,-1.504 0.002,-0.008 Z M -0.452,2.449 C 0.271,1.052 0.46,0.176 0.479,0.081 v 0 L 0.48,0.073 0.481,0.072 H 0.48 C 0.736,-1.27 1.346,-2.164 2.091,-2.613 2.232,-2.699 2.38,-2.769 2.529,-2.822 2.681,-2.875 2.835,-2.913 2.988,-2.934 l 0.009,-10e-4 c 1.226,-0.16 3.555,-0.626 3.644,-0.643 h 0.002 l 0.001,-0.001 c 0.274,-0.027 3.102,-0.284 3.743,1.045 0.375,0.778 0.991,1.388 1.606,1.997 0.639,0.632 1.278,1.265 1.593,2.055 0.513,1.283 0.056,2.182 -0.404,3.088 -0.076,0.148 -0.152,0.297 -0.23,0.463 l -10e-4,0.002 -0.002,0.003 c -0.28,0.591 -0.487,1.234 -0.688,1.86 -0.185,0.574 -0.365,1.133 -0.591,1.613 h 10e-4 L 11.669,8.55 11.668,8.551 C 11.396,9.127 10.587,9.457 10.036,9.62 9.681,9.727 9.456,9.733 9.096,9.746 8.57,9.763 7.608,9.856 6.315,10.241 5.371,10.522 4.664,10.563 4.136,10.438 3.636,10.321 3.295,10.051 3.062,9.698 2.692,9.146 1.931,8.393 1.096,7.567 0.677,7.154 0.24,6.723 -0.169,6.296 L -0.172,6.291 -0.175,6.288 H -0.176 C -0.741,5.694 -0.988,5.081 -1.006,4.453 -1.025,3.81 -0.809,3.139 -0.452,2.449"
         style="fill:#316bbd;fill-opacity:1;fill-rule:nonzero;stroke:none"
         transform="matrix(0.35277776,0,0,-0.35277776,154.55434,144.34242)"
         clip-path="url(#clipPath24)" />
      <path
         id="path25"
         d="m 0,0 c 0,-0.995 -0.178,-1.919 -0.534,-2.774 -0.356,-0.856 -0.838,-1.597 -1.452,-2.224 -0.611,-0.622 -1.33,-1.114 -2.152,-1.474 -0.822,-0.36 -1.707,-0.542 -2.651,-0.542 -0.933,0 -1.814,0.182 -2.635,0.542 -0.826,0.36 -1.542,0.852 -2.16,1.474 -0.614,0.627 -1.102,1.368 -1.457,2.224 -0.355,0.855 -0.533,1.779 -0.533,2.774 0,1.008 0.178,1.944 0.533,2.804 0.355,0.86 0.843,1.6 1.457,2.227 0.618,0.623 1.334,1.115 2.16,1.47 0.821,0.356 1.702,0.534 2.635,0.534 0.944,0 1.829,-0.17 2.651,-0.504 C -3.316,6.196 -2.597,5.722 -1.986,5.104 -1.372,4.489 -0.89,3.748 -0.534,2.884 -0.178,2.021 0,1.059 0,0 m -3.414,0 c 0,0.546 -0.089,1.038 -0.267,1.482 C -3.858,1.923 -4.1,2.304 -4.405,2.622 -4.71,2.943 -5.07,3.186 -5.48,3.354 -5.888,3.523 -6.323,3.608 -6.789,3.608 -7.251,3.608 -7.687,3.523 -8.099,3.354 -8.505,3.186 -8.86,2.943 -9.165,2.622 -9.467,2.304 -9.703,1.923 -9.877,1.482 -10.051,1.038 -10.14,0.546 -10.14,0 c 0,-0.513 0.089,-0.991 0.263,-1.428 0.174,-0.44 0.41,-0.821 0.712,-1.143 0.305,-0.322 0.66,-0.576 1.066,-0.762 0.412,-0.187 0.848,-0.28 1.31,-0.28 0.466,0 0.901,0.089 1.309,0.262 0.41,0.174 0.77,0.415 1.075,0.734 0.305,0.313 0.547,0.694 0.724,1.138 0.178,0.45 0.267,0.941 0.267,1.479"
         style="fill:#316bbd;fill-opacity:1;fill-rule:nonzero;stroke:none"
         transform="matrix(0.35277776,0,0,-0.35277776,159.14045,143.20693)"
         clip-path="url(#clipPath26)" />
      <path
         id="path27"
         d="M 0,0 C 0,-0.995 -0.178,-1.919 -0.534,-2.774 -0.552,-2.817 -0.57,-2.86 -0.589,-2.903 l -3.031,1.591 c 0.138,0.403 0.206,0.839 0.206,1.312 0,0.111 -0.003,0.222 -0.011,0.328 l 3.417,0.046 C -0.003,0.251 0,0.126 0,0 m -6.064,-6.977 c -0.238,-0.024 -0.48,-0.037 -0.725,-0.037 -0.933,0 -1.814,0.182 -2.635,0.542 -0.127,0.056 -0.251,0.115 -0.373,0.176 l 1.694,2.965 0.004,-0.002 c 0.412,-0.187 0.848,-0.28 1.31,-0.28 0.233,0 0.46,0.022 0.679,0.067 z m -7.509,6.823 c -10e-4,0.051 -10e-4,0.102 -10e-4,0.154 0,1.008 0.178,1.944 0.533,2.804 0.126,0.304 0.269,0.593 0.428,0.868 L -9.684,1.898 C -9.755,1.767 -9.819,1.628 -9.877,1.482 -10.051,1.038 -10.14,0.546 -10.14,0 c 0,-0.036 0.001,-0.072 0.002,-0.108 z M -6.48,7.028 C -5.651,6.996 -4.869,6.829 -4.138,6.531 -3.877,6.425 -3.626,6.304 -3.386,6.17 L -4.733,2.921 C -4.959,3.099 -5.209,3.242 -5.48,3.354 -5.782,3.48 -6.101,3.559 -6.435,3.592 Z"
         style="fill:#232c5a;fill-opacity:1;fill-rule:nonzero;stroke:none"
         transform="matrix(0.35277776,0,0,-0.35277776,159.14045,143.20693)"
         clip-path="url(#clipPath28)" />
      <path
         id="path29"
         d="M 0,0 C 0,0 -1.686,0 -0.824,0.337 0.038,0.674 1.573,2.135 1.836,2.584 2.098,3.034 2.96,3.708 3.971,2.996 4.982,2.285 3.821,0.3 0,0"
         style="fill:#316bbd;fill-opacity:1;fill-rule:evenodd;stroke:none"
         transform="matrix(0.35277776,0,0,-0.35277776,157.20261,140.22553)"
         clip-path="url(#clipPath30)" />
      <path
         id="path31"
         d="M 0,0 0.494,0.285 C 0.67,0.387 0.896,0.326 0.998,0.15 L 1.09,-0.01 C 1.191,-0.186 1.131,-0.412 0.955,-0.514 L 0.461,-0.799 c -0.176,-0.1 -0.402,-0.04 -0.504,0.136 l -0.092,0.159 C -0.236,-0.328 -0.176,-0.102 0,0"
         style="fill:#232c5a;fill-opacity:1;fill-rule:evenodd;stroke:none"
         transform="matrix(0.35277776,0,0,-0.35277776,155.34259,141.00239)"
         clip-path="url(#clipPath32)" />
      <path
         id="path33"
         d="M 0,0 0.209,-0.53 C 0.283,-0.719 0.189,-0.935 0.001,-1.009 l -0.172,-0.067 c -0.188,-0.074 -0.404,0.019 -0.478,0.208 l -0.209,0.531 c -0.075,0.189 0.019,0.404 0.209,0.479 l 0.17,0.067 C -0.289,0.283 -0.074,0.189 0,0"
         style="fill:#232c5a;fill-opacity:1;fill-rule:evenodd;stroke:none"
         transform="matrix(0.35277776,0,0,-0.35277776,159.15908,142.05176)"
         clip-path="url(#clipPath34)" />
      <path
         id="path35"
         d="m 0,0 -0.322,0.471 c -0.115,0.167 -0.072,0.397 0.095,0.512 l 0.153,0.104 C 0.093,1.202 0.323,1.159 0.438,0.991 L 0.761,0.521 C 0.876,0.354 0.832,0.123 0.665,0.009 L 0.513,-0.096 C 0.346,-0.211 0.115,-0.168 0,0"
         style="fill:#232c5a;fill-opacity:1;fill-rule:evenodd;stroke:none"
         transform="matrix(0.35277776,0,0,-0.35277776,154.64014,144.87606)"
         clip-path="url(#clipPath36)" />
      <path
         id="path37"
         d="m 0,0 -0.487,-0.297 c -0.174,-0.105 -0.402,-0.051 -0.507,0.123 l -0.097,0.157 c -0.105,0.173 -0.05,0.402 0.123,0.507 l 0.488,0.297 c 0.172,0.106 0.401,0.051 0.506,-0.123 L 0.122,0.507 C 0.229,0.334 0.173,0.105 0,0"
         style="fill:#232c5a;fill-opacity:1;fill-rule:evenodd;stroke:none"
         transform="matrix(0.35277776,0,0,-0.35277776,158.27608,145.44933)"
         clip-path="url(#clipPath38)" />
    </g>
  </g>
</svg>
